<svg width="294" height="71" viewBox="0 0 294 71" fill="none" xmlns="http://www.w3.org/2000/svg">
<g clip-path="url(#clip0_0_17)">
<path d="M79.457 36.1292C79.457 24.6565 85.5624 18.9667 97.5403 18.9667C102.434 18.9667 105.324 19.8528 107.795 20.9721L105.697 26.7085C102.574 25.869 101.27 25.5426 97.6335 25.4951C91.6679 25.4027 87.5208 28.7597 87.5208 35.662C87.5208 42.5652 91.9018 46.2495 98.5665 46.2495C101.781 46.2495 103.693 45.9697 106.208 45.3168L107.887 51.2864C104.718 52.4523 101.969 52.872 97.7276 52.872C85.6565 52.872 79.457 46.9491 79.457 36.1292ZM130.075 39.6737C130.075 35.5696 129.051 32.4449 124.76 32.4449C120.566 32.4449 119.402 35.5696 119.402 39.7212C119.402 44.1042 120.707 46.7625 124.854 46.7625C129.05 46.7625 130.074 44.0109 130.074 39.6737H130.075ZM111.571 39.9069C111.571 31.4647 116.838 26.2879 124.901 26.2879C133.942 26.2879 137.999 31.3722 137.999 39.6745C137.999 48.3482 132.31 52.9662 124.48 52.9662C116.092 52.9662 111.571 47.8818 111.571 39.906V39.9069ZM140.518 26.9417H148.861L153.149 40.7463L154.454 45.8298L155.899 40.7463L160.651 26.9417H168.809L158.928 52.4057H149.699L140.518 26.9417ZM186.659 45.9231V41.9131L182.839 42.0073C180.554 42.053 178.878 42.7992 178.878 44.6647C178.878 46.1571 180.322 46.81 181.72 46.81C183.211 46.81 184.982 46.3894 186.659 45.9239L186.659 45.9231ZM171.326 45.1302C171.326 38.6943 177.2 37.3884 182.234 37.3884H186.659V35.8019C186.659 33.5642 185.215 32.9113 182.047 32.9113C179.529 32.9113 176.826 33.4709 174.449 34.0297L172.912 28.3866C175.802 27.2682 179.158 26.3354 183.211 26.3354C191.089 26.3354 194.258 28.574 194.258 34.3104V45.6432C194.258 46.4827 195.097 46.6693 196.541 46.7159L196.261 52.5922C195.656 52.6388 195.049 52.6388 194.443 52.6388C191.368 52.6388 188.106 52.1258 187.407 49.9339C185.543 51.3805 182.886 52.8254 180.088 52.8254C174.497 52.8254 171.326 50.2137 171.326 45.1302ZM202.323 17.2403H210.106V52.4065H202.323V17.2403ZM231.686 37.062C231.78 33.9839 230.428 31.8386 227.911 31.8386C225.255 31.8386 223.531 33.7041 223.39 37.062H231.686ZM215.419 40.0459C215.419 29.6467 220.874 26.3354 228.564 26.3354C236.58 26.3354 239.657 31.5588 239.657 39.2539V42.0522H223.158C223.113 46.063 226.28 46.8092 230.333 46.8092C232.059 46.8092 234.949 46.2495 237.606 45.7832L238.771 51.7052C235.928 52.5456 232.293 52.9662 229.217 52.9662C220.828 52.9662 215.419 50.2137 215.419 40.0459ZM244.973 26.9417H252.756V29.5068C254.295 28.3408 257.65 26.2879 261.054 26.2879C269.022 26.2879 269.582 30.6718 269.582 36.4557V52.4065H261.844V37.1086C261.844 33.6108 261.054 33.0045 258.441 33.0045C256.112 33.0045 254.015 33.7507 252.756 34.357V52.4057H244.973V26.9417ZM277.226 44.4773V32.6781H273.499V26.9417H277.226V21.7175H284.963V26.9417H292.841V32.6781H284.963V44.4307C284.963 46.2962 285.663 46.4361 287.761 46.4361C289.484 46.4361 293.26 45.9231 293.26 45.9231L294.006 52.0326C292.188 52.5456 289.718 52.9187 287.854 52.9187C282.959 52.9187 277.226 53.1518 277.226 44.4773ZM35.0825 16.3714V-0.00341797C15.6977 -0.00341797 0 15.7056 0 35.1024C0 54.5 15.6986 70.2099 35.0825 70.2099V53.835C24.7359 53.835 16.364 45.4567 16.364 35.1024C16.364 24.7497 24.7359 16.3714 35.0825 16.3714Z" fill="white"/>
<path d="M53.87 16.3714C52.7955 16.3714 51.7316 16.1597 50.7389 15.7482C49.7462 15.3368 48.8442 14.7337 48.0844 13.9734C47.3247 13.2131 46.722 12.3106 46.3108 11.3172C45.8996 10.3239 45.688 9.2592 45.688 8.18401C45.688 7.10882 45.8996 6.04416 46.3108 5.05082C46.722 4.05747 47.3247 3.1549 48.0844 2.39463C48.8442 1.63435 49.7462 1.03127 50.7389 0.619813C51.7316 0.208356 52.7955 -0.00341798 53.87 -0.00341797C56.04 -0.00341794 58.1211 0.859184 59.6555 2.39463C61.19 3.93007 62.052 6.01257 62.052 8.18401C62.052 10.3555 61.19 12.438 59.6555 13.9734C58.1211 15.5088 56.04 16.3714 53.87 16.3714Z" fill="white"/>
<path d="M53.7328 70.209C51.5628 70.209 49.4817 69.3464 47.9472 67.8109C46.4128 66.2755 45.5508 64.193 45.5508 62.0215C45.5508 59.8501 46.4128 57.7676 47.9472 56.2321C49.4817 54.6967 51.5628 53.8341 53.7328 53.8341C55.9028 53.8341 57.9839 54.6967 59.5183 56.2321C61.0528 57.7676 61.9148 59.8501 61.9148 62.0215C61.9148 64.193 61.0528 66.2755 59.5183 67.8109C57.9839 69.3464 55.9028 70.209 53.7328 70.209Z" fill="white"/>
<path d="M53.8019 35.1023C53.8019 45.4566 45.43 53.8349 35.0825 53.8349V16.3705C45.4291 16.3705 53.8019 24.7479 53.8019 35.1014" fill="white"/>
</g>
<defs>
<clipPath id="clip0_0_17">
<rect width="294" height="70.209" fill="white"/>
</clipPath>
</defs>
</svg>
