                        <svg
                          xmlns="http://www.w3.org/2000/svg"
                          xmlns:xlink="http://www.w3.org/1999/xlink"
                          viewBox="0 0 603 165"
                          width="603"
                          height="165"
                          preserveAspectRatio="xMidYMid slice"
                          style="width: 100%; height: 100%; transform: translate3d(0px, 0px, 0px); content-visibility: visible;"
                        >
                          <defs>
                            <clipPath id="__lottie_element_2">
                              <rect width="603" height="165" x="0" y="0"></rect>
                            </clipPath>
                            <clipPath id="__lottie_element_4">
                              <path d="M0,0 L603,0 L603,165 L0,165z"></path>
                            </clipPath>
                            <g id="__lottie_element_17">
                              <g
                                clip-path="url(#__lottie_element_18)"
                                style="display: block;"
                                transform="matrix(1,0,0,1,0,0)"
                                opacity="1"
                              >
                                <rect
                                  width="603"
                                  height="165"
                                  fill="#ffffff"
                                ></rect>
                              </g>
                            </g>
                            <clipPath id="__lottie_element_18">
                              <path
                                fill="#ffffff"
                                clip-rule="nonzero"
                                d=" M103,33.25 C103,33.25 25.5,33.25 25.5,33.25 C25.5,33.25 25.5,136.5 25.5,136.5 C25.5,136.5 103,136.5 103,136.5 C103,136.5 103,33.25 103,33.25"
                                fill-opacity="1"
                              ></path>
                            </clipPath>
                            <filter
                              id="__lottie_element_23"
                              filterUnits="objectBoundingBox"
                              x="0%"
                              y="0%"
                              width="100%"
                              height="100%"
                            >
                              <feComponentTransfer in="SourceGraphic">
                                <feFuncA
                                  type="table"
                                  tableValues="1.0 0.0"
                                ></feFuncA>
                              </feComponentTransfer>
                            </filter>
                            <mask id="__lottie_element_17_2" mask-type="alpha">
                              <g filter="url(#__lottie_element_23)">
                                <rect
                                  width="603"
                                  height="165"
                                  x="0"
                                  y="0"
                                  fill="#ffffff"
                                  opacity="0"
                                ></rect>
                                <use xlink:href="#__lottie_element_17"></use>
                              </g>
                            </mask>
                            <g id="__lottie_element_24">
                              <g
                                style="display: block;"
                                transform="matrix(0.9999958276748657,0.0028949694242328405,-0.0028949694242328405,0.9999958276748657,40.59050750732422,13.03278923034668)"
                                opacity="1"
                              >
                                <path
                                  fill="rgb(255,255,255)"
                                  fill-opacity="1"
                                  d=" M62.3,29.19 C62.3,29.19 62.3,0.25 62.3,0.25 C28.02,0.25 0.25,28.02 0.25,62.31 C0.25,96.59 28.02,124.36 62.3,124.36 C62.3,124.36 62.3,95.42 62.3,95.42 C44,95.42 29.19,80.61 29.19,62.31 C29.19,44.01 44,29.19 62.3,29.19z"
                                ></path>
                                <g
                                  opacity="1"
                                  transform="matrix(1,0,0,1,31.277000427246094,62.30699920654297)"
                                >
                                  <path
                                    fill="rgb(255,255,255)"
                                    fill-opacity="1"
                                    d=" M31.027000427246094,-33.11199951171875 C31.027000427246094,-33.11199951171875 31.027000427246094,-62.055999755859375 31.027000427246094,-62.055999755859375 C-3.26200008392334,-62.055999755859375 -31.027000427246094,-34.28799819946289 -31.027000427246094,-0.0010000000474974513 C-31.027000427246094,34.2869987487793 -3.259999990463257,62.055999755859375 31.027000427246094,62.055999755859375 C31.027000427246094,62.055999755859375 31.027000427246094,33.111000061035156 31.027000427246094,33.111000061035156 C12.72599983215332,33.111000061035156 -2.0829999446868896,18.302000045776367 -2.0829999446868896,-0.0010000000474974513 C-2.0829999446868896,-18.301000595092773 12.72599983215332,-33.11199951171875 31.027000427246094,-33.11199951171875z"
                                  ></path>
                                </g>
                              </g>
                            </g>
                            <mask id="__lottie_element_24_1" mask-type="alpha">
                              <use xlink:href="#__lottie_element_24"></use>
                            </mask>
                            <g id="__lottie_element_30">
                              <g
                                clip-path="url(#__lottie_element_31)"
                                style="display: block;"
                                transform="matrix(1,0,0,1,-857.5,-457.5)"
                                opacity="1"
                              >
                                <rect
                                  width="1920"
                                  height="1080"
                                  fill="#ffffff"
                                ></rect>
                              </g>
                            </g>
                            <clipPath id="__lottie_element_31">
                              <path
                                fill="#ffffff"
                                clip-rule="nonzero"
                                d=" M1428.5,493 C1428.5,493 1362.5,493 1362.5,493 C1362.5,493 1362.5,573 1362.5,573 C1362.5,573 1428.5,573 1428.5,573 C1428.5,573 1428.5,493 1428.5,493"
                                fill-opacity="1"
                              ></path>
                            </clipPath>
                            <mask id="__lottie_element_30_1" mask-type="alpha">
                              <use xlink:href="#__lottie_element_30"></use>
                            </mask>
                            <g id="__lottie_element_36">
                              <g
                                clip-path="url(#__lottie_element_37)"
                                style="display: block;"
                                transform="matrix(1,0,0,1,-857.5,-457.5)"
                                opacity="1"
                              >
                                <rect
                                  width="1920"
                                  height="1080"
                                  fill="#ffffff"
                                ></rect>
                              </g>
                            </g>
                            <clipPath id="__lottie_element_37">
                              <path
                                fill="#ffffff"
                                clip-rule="nonzero"
                                d=" M1386.5,493 C1386.5,493 1320.5,493 1320.5,493 C1320.5,493 1320.5,573 1320.5,573 C1320.5,573 1386.5,573 1386.5,573 C1386.5,573 1386.5,493 1386.5,493"
                                fill-opacity="1"
                              ></path>
                            </clipPath>
                            <mask id="__lottie_element_36_1" mask-type="alpha">
                              <use xlink:href="#__lottie_element_36"></use>
                            </mask>
                            <g id="__lottie_element_42">
                              <g
                                clip-path="url(#__lottie_element_43)"
                                style="display: block;"
                                transform="matrix(1,0,0,1,-857.5,-457.5)"
                                opacity="1"
                              >
                                <rect
                                  width="1920"
                                  height="1080"
                                  fill="#ffffff"
                                ></rect>
                              </g>
                            </g>
                            <clipPath id="__lottie_element_43">
                              <path
                                fill="#ffffff"
                                clip-rule="nonzero"
                                d=" M1335,493 C1335,493 1269,493 1269,493 C1269,493 1269,573 1269,573 C1269,573 1335,573 1335,573 C1335,573 1335,493 1335,493"
                                fill-opacity="1"
                              ></path>
                            </clipPath>
                            <mask id="__lottie_element_42_1" mask-type="alpha">
                              <use xlink:href="#__lottie_element_42"></use>
                            </mask>
                            <g id="__lottie_element_48">
                              <g
                                clip-path="url(#__lottie_element_49)"
                                style="display: block;"
                                transform="matrix(1,0,0,1,-857.5,-457.5)"
                                opacity="1"
                              >
                                <rect
                                  width="1920"
                                  height="1080"
                                  fill="#ffffff"
                                ></rect>
                              </g>
                            </g>
                            <clipPath id="__lottie_element_49">
                              <path
                                fill="#ffffff"
                                clip-rule="nonzero"
                                d=" M1295.5,493 C1295.5,493 1229.5,493 1229.5,493 C1229.5,493 1229.5,573 1229.5,573 C1229.5,573 1295.5,573 1295.5,573 C1295.5,573 1295.5,493 1295.5,493"
                                fill-opacity="1"
                              ></path>
                            </clipPath>
                            <mask id="__lottie_element_48_1" mask-type="alpha">
                              <use xlink:href="#__lottie_element_48"></use>
                            </mask>
                            <g id="__lottie_element_54">
                              <g
                                clip-path="url(#__lottie_element_55)"
                                style="display: block;"
                                transform="matrix(1,0,0,1,-857.5,-457.5)"
                                opacity="1"
                              >
                                <rect
                                  width="1920"
                                  height="1080"
                                  fill="#ffffff"
                                ></rect>
                              </g>
                            </g>
                            <clipPath id="__lottie_element_55">
                              <path
                                fill="#ffffff"
                                clip-rule="nonzero"
                                d=" M1255,493 C1255,493 1189,493 1189,493 C1189,493 1189,573 1189,573 C1189,573 1255,573 1255,573 C1255,573 1255,493 1255,493"
                                fill-opacity="1"
                              ></path>
                            </clipPath>
                            <mask id="__lottie_element_54_1" mask-type="alpha">
                              <use xlink:href="#__lottie_element_54"></use>
                            </mask>
                            <g id="__lottie_element_60">
                              <g
                                clip-path="url(#__lottie_element_61)"
                                style="display: block;"
                                transform="matrix(1,0,0,1,-857.5,-457.5)"
                                opacity="1"
                              >
                                <rect
                                  width="1920"
                                  height="1080"
                                  fill="#ffffff"
                                ></rect>
                              </g>
                            </g>
                            <clipPath id="__lottie_element_61">
                              <path
                                fill="#ffffff"
                                clip-rule="nonzero"
                                d=" M1204.5,493 C1204.5,493 1138.5,493 1138.5,493 C1138.5,493 1138.5,573 1138.5,573 C1138.5,573 1204.5,573 1204.5,573 C1204.5,573 1204.5,493 1204.5,493"
                                fill-opacity="1"
                              ></path>
                            </clipPath>
                            <mask id="__lottie_element_60_1" mask-type="alpha">
                              <use xlink:href="#__lottie_element_60"></use>
                            </mask>
                            <g id="__lottie_element_66">
                              <g
                                clip-path="url(#__lottie_element_67)"
                                style="display: block;"
                                transform="matrix(1,0,0,1,-857.5,-457.5)"
                                opacity="1"
                              >
                                <rect
                                  width="1920"
                                  height="1080"
                                  fill="#ffffff"
                                ></rect>
                              </g>
                            </g>
                            <clipPath id="__lottie_element_67">
                              <path
                                fill="#ffffff"
                                clip-rule="nonzero"
                                d=" M1151,493 C1151,493 1085,493 1085,493 C1085,493 1085,573 1085,573 C1085,573 1151,573 1151,573 C1151,573 1151,493 1151,493"
                                fill-opacity="1"
                              ></path>
                            </clipPath>
                            <mask id="__lottie_element_66_1" mask-type="alpha">
                              <use xlink:href="#__lottie_element_66"></use>
                            </mask>
                            <g id="__lottie_element_72">
                              <g
                                clip-path="url(#__lottie_element_73)"
                                style="display: block;"
                                transform="matrix(1,0,0,1,-857.5,-457.5)"
                                opacity="1"
                              >
                                <rect
                                  width="1920"
                                  height="1080"
                                  fill="#ffffff"
                                ></rect>
                              </g>
                            </g>
                            <clipPath id="__lottie_element_73">
                              <path
                                fill="#ffffff"
                                clip-rule="nonzero"
                                d=" M1098.5,493 C1098.5,493 1032.5,493 1032.5,493 C1032.5,493 1032.5,573 1032.5,573 C1032.5,573 1098.5,573 1098.5,573 C1098.5,573 1098.5,493 1098.5,493"
                                fill-opacity="1"
                              ></path>
                            </clipPath>
                            <mask id="__lottie_element_72_1" mask-type="alpha">
                              <use xlink:href="#__lottie_element_72"></use>
                            </mask>
                            <clipPath id="__lottie_element_79">
                              <path d="M0,0 L603,0 L603,165 L0,165z"></path>
                            </clipPath>
                            <g id="__lottie_element_92">
                              <g
                                clip-path="url(#__lottie_element_93)"
                                transform="matrix(1,0,0,1,0,0)"
                                opacity="1"
                                style="display: block;"
                              >
                                <rect
                                  width="603"
                                  height="165"
                                  fill="#ffffff"
                                ></rect>
                              </g>
                            </g>
                            <clipPath id="__lottie_element_93">
                              <path
                                fill="#ffffff"
                                clip-rule="nonzero"
                                d=" M103,33.25 C103,33.25 25.5,33.25 25.5,33.25 C25.5,33.25 25.5,136.5 25.5,136.5 C25.5,136.5 103,136.5 103,136.5 C103,136.5 103,33.25 103,33.25"
                                fill-opacity="1"
                              ></path>
                            </clipPath>
                            <filter
                              id="__lottie_element_98"
                              filterUnits="objectBoundingBox"
                              x="0%"
                              y="0%"
                              width="100%"
                              height="100%"
                            >
                              <feComponentTransfer in="SourceGraphic">
                                <feFuncA
                                  type="table"
                                  tableValues="1.0 0.0"
                                ></feFuncA>
                              </feComponentTransfer>
                            </filter>
                            <mask id="__lottie_element_92_2" mask-type="alpha">
                              <g filter="url(#__lottie_element_98)">
                                <rect
                                  width="603"
                                  height="165"
                                  x="0"
                                  y="0"
                                  fill="#ffffff"
                                  opacity="0"
                                ></rect>
                                <use xlink:href="#__lottie_element_92"></use>
                              </g>
                            </mask>
                            <g id="__lottie_element_99">
                              <g
                                transform="matrix(0.9999958276748657,0.0028972425498068333,-0.0028972425498068333,0.9999958276748657,40.59064865112305,13.032646179199219)"
                                opacity="1"
                                style="display: block;"
                              >
                                <path
                                  fill="rgb(255,255,255)"
                                  fill-opacity="1"
                                  d=" M62.3,29.19 C62.3,29.19 62.3,0.25 62.3,0.25 C28.02,0.25 0.25,28.02 0.25,62.31 C0.25,96.59 28.02,124.36 62.3,124.36 C62.3,124.36 62.3,95.42 62.3,95.42 C44,95.42 29.19,80.61 29.19,62.31 C29.19,44.01 44,29.19 62.3,29.19z"
                                ></path>
                                <g
                                  opacity="1"
                                  transform="matrix(1,0,0,1,31.277000427246094,62.30699920654297)"
                                >
                                  <path
                                    fill="rgb(255,255,255)"
                                    fill-opacity="1"
                                    d=" M31.027000427246094,-33.11199951171875 C31.027000427246094,-33.11199951171875 31.027000427246094,-62.055999755859375 31.027000427246094,-62.055999755859375 C-3.26200008392334,-62.055999755859375 -31.027000427246094,-34.28799819946289 -31.027000427246094,-0.0010000000474974513 C-31.027000427246094,34.2869987487793 -3.259999990463257,62.055999755859375 31.027000427246094,62.055999755859375 C31.027000427246094,62.055999755859375 31.027000427246094,33.111000061035156 31.027000427246094,33.111000061035156 C12.72599983215332,33.111000061035156 -2.0829999446868896,18.302000045776367 -2.0829999446868896,-0.0010000000474974513 C-2.0829999446868896,-18.301000595092773 12.72599983215332,-33.11199951171875 31.027000427246094,-33.11199951171875z"
                                  ></path>
                                </g>
                              </g>
                            </g>
                            <mask id="__lottie_element_99_1" mask-type="alpha">
                              <use xlink:href="#__lottie_element_99"></use>
                            </mask>
                            <g id="__lottie_element_105">
                              <g
                                clip-path="url(#__lottie_element_106)"
                                transform="matrix(1,0,0,1,-857.5,-457.5)"
                                opacity="1"
                                style="display: block;"
                              >
                                <rect
                                  width="1920"
                                  height="1080"
                                  fill="#ffffff"
                                ></rect>
                              </g>
                            </g>
                            <clipPath id="__lottie_element_106">
                              <path
                                fill="#ffffff"
                                clip-rule="nonzero"
                                d=" M1428.5,493 C1428.5,493 1362.5,493 1362.5,493 C1362.5,493 1362.5,573 1362.5,573 C1362.5,573 1428.5,573 1428.5,573 C1428.5,573 1428.5,493 1428.5,493"
                                fill-opacity="1"
                              ></path>
                            </clipPath>
                            <mask id="__lottie_element_105_1" mask-type="alpha">
                              <use xlink:href="#__lottie_element_105"></use>
                            </mask>
                            <g id="__lottie_element_111">
                              <g
                                clip-path="url(#__lottie_element_112)"
                                transform="matrix(1,0,0,1,-857.5,-457.5)"
                                opacity="1"
                                style="display: block;"
                              >
                                <rect
                                  width="1920"
                                  height="1080"
                                  fill="#ffffff"
                                ></rect>
                              </g>
                            </g>
                            <clipPath id="__lottie_element_112">
                              <path
                                fill="#ffffff"
                                clip-rule="nonzero"
                                d=" M1386.5,493 C1386.5,493 1320.5,493 1320.5,493 C1320.5,493 1320.5,573 1320.5,573 C1320.5,573 1386.5,573 1386.5,573 C1386.5,573 1386.5,493 1386.5,493"
                                fill-opacity="1"
                              ></path>
                            </clipPath>
                            <mask id="__lottie_element_111_1" mask-type="alpha">
                              <use xlink:href="#__lottie_element_111"></use>
                            </mask>
                            <g id="__lottie_element_117">
                              <g
                                clip-path="url(#__lottie_element_118)"
                                transform="matrix(1,0,0,1,-857.5,-457.5)"
                                opacity="1"
                                style="display: block;"
                              >
                                <rect
                                  width="1920"
                                  height="1080"
                                  fill="#ffffff"
                                ></rect>
                              </g>
                            </g>
                            <clipPath id="__lottie_element_118">
                              <path
                                fill="#ffffff"
                                clip-rule="nonzero"
                                d=" M1335,493 C1335,493 1269,493 1269,493 C1269,493 1269,573 1269,573 C1269,573 1335,573 1335,573 C1335,573 1335,493 1335,493"
                                fill-opacity="1"
                              ></path>
                            </clipPath>
                            <mask id="__lottie_element_117_1" mask-type="alpha">
                              <use xlink:href="#__lottie_element_117"></use>
                            </mask>
                            <g id="__lottie_element_123">
                              <g
                                clip-path="url(#__lottie_element_124)"
                                transform="matrix(1,0,0,1,-857.5,-457.5)"
                                opacity="1"
                                style="display: block;"
                              >
                                <rect
                                  width="1920"
                                  height="1080"
                                  fill="#ffffff"
                                ></rect>
                              </g>
                            </g>
                            <clipPath id="__lottie_element_124">
                              <path
                                fill="#ffffff"
                                clip-rule="nonzero"
                                d=" M1295.5,493 C1295.5,493 1229.5,493 1229.5,493 C1229.5,493 1229.5,573 1229.5,573 C1229.5,573 1295.5,573 1295.5,573 C1295.5,573 1295.5,493 1295.5,493"
                                fill-opacity="1"
                              ></path>
                            </clipPath>
                            <mask id="__lottie_element_123_1" mask-type="alpha">
                              <use xlink:href="#__lottie_element_123"></use>
                            </mask>
                            <g id="__lottie_element_129">
                              <g
                                clip-path="url(#__lottie_element_130)"
                                transform="matrix(1,0,0,1,-857.5,-457.5)"
                                opacity="1"
                                style="display: block;"
                              >
                                <rect
                                  width="1920"
                                  height="1080"
                                  fill="#ffffff"
                                ></rect>
                              </g>
                            </g>
                            <clipPath id="__lottie_element_130">
                              <path
                                fill="#ffffff"
                                clip-rule="nonzero"
                                d=" M1255,493 C1255,493 1189,493 1189,493 C1189,493 1189,573 1189,573 C1189,573 1255,573 1255,573 C1255,573 1255,493 1255,493"
                                fill-opacity="1"
                              ></path>
                            </clipPath>
                            <mask id="__lottie_element_129_1" mask-type="alpha">
                              <use xlink:href="#__lottie_element_129"></use>
                            </mask>
                            <g id="__lottie_element_135">
                              <g
                                clip-path="url(#__lottie_element_136)"
                                transform="matrix(1,0,0,1,-857.5,-457.5)"
                                opacity="1"
                                style="display: block;"
                              >
                                <rect
                                  width="1920"
                                  height="1080"
                                  fill="#ffffff"
                                ></rect>
                              </g>
                            </g>
                            <clipPath id="__lottie_element_136">
                              <path
                                fill="#ffffff"
                                clip-rule="nonzero"
                                d=" M1204.5,493 C1204.5,493 1138.5,493 1138.5,493 C1138.5,493 1138.5,573 1138.5,573 C1138.5,573 1204.5,573 1204.5,573 C1204.5,573 1204.5,493 1204.5,493"
                                fill-opacity="1"
                              ></path>
                            </clipPath>
                            <mask id="__lottie_element_135_1" mask-type="alpha">
                              <use xlink:href="#__lottie_element_135"></use>
                            </mask>
                            <g id="__lottie_element_141">
                              <g
                                clip-path="url(#__lottie_element_142)"
                                transform="matrix(1,0,0,1,-857.5,-457.5)"
                                opacity="1"
                                style="display: block;"
                              >
                                <rect
                                  width="1920"
                                  height="1080"
                                  fill="#ffffff"
                                ></rect>
                              </g>
                            </g>
                            <clipPath id="__lottie_element_142">
                              <path
                                fill="#ffffff"
                                clip-rule="nonzero"
                                d=" M1151,493 C1151,493 1085,493 1085,493 C1085,493 1085,573 1085,573 C1085,573 1151,573 1151,573 C1151,573 1151,493 1151,493"
                                fill-opacity="1"
                              ></path>
                            </clipPath>
                            <mask id="__lottie_element_141_1" mask-type="alpha">
                              <use xlink:href="#__lottie_element_141"></use>
                            </mask>
                            <g id="__lottie_element_147">
                              <g
                                clip-path="url(#__lottie_element_148)"
                                transform="matrix(1,0,0,1,-857.5,-457.5)"
                                opacity="1"
                                style="display: block;"
                              >
                                <rect
                                  width="1920"
                                  height="1080"
                                  fill="#ffffff"
                                ></rect>
                              </g>
                            </g>
                            <clipPath id="__lottie_element_148">
                              <path
                                fill="#ffffff"
                                clip-rule="nonzero"
                                d=" M1098.5,493 C1098.5,493 1032.5,493 1032.5,493 C1032.5,493 1032.5,573 1032.5,573 C1032.5,573 1098.5,573 1098.5,573 C1098.5,573 1098.5,493 1098.5,493"
                                fill-opacity="1"
                              ></path>
                            </clipPath>
                            <mask id="__lottie_element_147_1" mask-type="alpha">
                              <use xlink:href="#__lottie_element_147"></use>
                            </mask>
                          </defs>
                          <g clip-path="url(#__lottie_element_2)">
                            <g
                              clip-path="url(#__lottie_element_79)"
                              transform="matrix(1,0,0,1,0,5)"
                              opacity="1"
                              style="display: block;"
                            >
                              <g
                                mask="url(#__lottie_element_147_1)"
                                style="display: block;"
                              >
                                <g
                                  transform="matrix(1,0,0,1,180.9560089111328,43.69599533081055)"
                                  opacity="1"
                                >
                                  <g
                                    opacity="1"
                                    transform="matrix(1,0,0,1,25.393999099731445,33.268001556396484)"
                                  >
                                    <path
                                      fill="rgb(255,255,255)"
                                      fill-opacity="1"
                                      d=" M-25.143999099731445,0.3709999918937683 C-25.143999099731445,-19.909000396728516 -14.345000267028809,-29.965999603271484 6.8420000076293945,-29.965999603271484 C15.498000144958496,-29.965999603271484 20.608999252319336,-28.399999618530273 24.979999542236328,-26.422000885009766 C24.979999542236328,-26.422000885009766 21.270999908447266,-16.2810001373291 21.270999908447266,-16.2810001373291 C15.746000289916992,-17.764999389648438 13.439000129699707,-18.343000411987305 7.006999969482422,-18.427000045776367 C-3.5450000762939453,-18.59000015258789 -10.880999565124512,-12.656000137329102 -10.880999565124512,-0.45500001311302185 C-10.880999565124512,11.746999740600586 -3.13100004196167,18.260000228881836 8.656999588012695,18.260000228881836 C14.343999862670898,18.260000228881836 17.72599983215332,17.764999389648438 22.173999786376953,16.61199951171875 C22.173999786376953,16.61199951171875 25.143999099731445,27.163999557495117 25.143999099731445,27.163999557495117 C19.538000106811523,29.225000381469727 14.675000190734863,29.965999603271484 7.172999858856201,29.965999603271484 C-14.178000450134277,29.965999603271484 -25.143999099731445,19.496000289916992 -25.143999099731445,0.3709999918937683z"
                                    ></path>
                                  </g>
                                </g>
                              </g>
                              <g
                                mask="url(#__lottie_element_141_1)"
                                style="display: block;"
                              >
                                <g
                                  transform="matrix(1,0,0,1,180.95599365234375,43.69599914550781)"
                                  opacity="1"
                                >
                                  <g
                                    opacity="1"
                                    transform="matrix(1,0,0,1,80.427001953125,39.821998596191406)"
                                  >
                                    <path
                                      fill="rgb(255,255,255)"
                                      fill-opacity="1"
                                      d=" M0.20499999821186066,-23.57900047302246 C-14.057000160217285,-23.57900047302246 -23.37299919128418,-14.428999900817871 -23.374000549316406,0.49300000071525574 C-23.37299919128418,14.592000007629395 -15.375,23.57900047302246 -0.5389999747276306,23.57900047302246 C13.312000274658203,23.57900047302246 23.374000549316406,15.416999816894531 23.374000549316406,0.08500000089406967 C23.374000549316406,-14.590999603271484 16.197999954223633,-23.57900047302246 0.20499999821186066,-23.57900047302246z M9.355999946594238,0.0820000022649765 C9.355999946594238,7.749000072479248 7.545000076293945,12.61299991607666 0.12300000339746475,12.61299991607666 C-7.2129998207092285,12.61299991607666 -9.520999908447266,7.914999961853027 -9.520999908447266,0.16699999570846558 C-9.520999908447266,-7.171999931335449 -7.461999893188477,-12.694999694824219 -0.0430000014603138,-12.694999694824219 C7.545000076293945,-12.694999694824219 9.357000350952148,-7.172999858856201 9.357000350952148,0.0820000022649765 C9.357000350952148,0.0820000022649765 9.355999946594238,0.0820000022649765 9.355999946594238,0.0820000022649765z"
                                    ></path>
                                  </g>
                                </g>
                              </g>
                              <g
                                mask="url(#__lottie_element_135_1)"
                                style="display: block;"
                              >
                                <g
                                  transform="matrix(1,0,0,1,180.9560089111328,43.69599914550781)"
                                  opacity="1"
                                >
                                  <g
                                    opacity="1"
                                    transform="matrix(1,0,0,1,133.2779998779297,39.904998779296875)"
                                  >
                                    <path
                                      fill="rgb(255,255,255)"
                                      fill-opacity="1"
                                      d=" M-25.020999908447266,-22.506000518798828 C-25.020999908447266,-22.506000518798828 -10.263999938964844,-22.506000518798828 -10.263999938964844,-22.506000518798828 C-10.263999938964844,-22.506000518798828 -2.680000066757202,1.8960000276565552 -2.680000066757202,1.8960000276565552 C-2.680000066757202,1.8960000276565552 -0.3720000088214874,10.881999969482422 -0.3720000088214874,10.881999969482422 C-0.3720000088214874,10.881999969482422 2.186000108718872,1.8960000276565552 2.186000108718872,1.8960000276565552 C2.186000108718872,1.8960000276565552 10.590999603271484,-22.506000518798828 10.590999603271484,-22.506000518798828 C10.590999603271484,-22.506000518798828 25.020999908447266,-22.506000518798828 25.020999908447266,-22.506000518798828 C25.020999908447266,-22.506000518798828 7.541999816894531,22.506000518798828 7.541999816894531,22.506000518798828 C7.541999816894531,22.506000518798828 -8.781999588012695,22.506000518798828 -8.781999588012695,22.506000518798828 C-8.781999588012695,22.506000518798828 -25.020999908447266,-22.506000518798828 -25.020999908447266,-22.506000518798828z"
                                    ></path>
                                  </g>
                                </g>
                              </g>
                              <g
                                mask="url(#__lottie_element_129_1)"
                                style="display: block;"
                              >
                                <g
                                  transform="matrix(1,0,0,1,180.95599365234375,43.69599533081055)"
                                  opacity="1"
                                >
                                  <g
                                    opacity="1"
                                    transform="matrix(1,0,0,1,185.05099487304688,39.7400016784668)"
                                  >
                                    <path
                                      fill="rgb(255,255,255)"
                                      fill-opacity="1"
                                      d=" M18.261999130249023,10.715999603271484 C18.261999130249023,10.715999603271484 18.261999130249023,-9.315999984741211 18.261999130249023,-9.315999984741211 C18.261999130249023,-19.45599937438965 12.656999588012695,-23.413000106811523 -1.2769999504089355,-23.413000106811523 C-8.447999954223633,-23.413000106811523 -14.383000373840332,-21.763999938964844 -19.4950008392334,-19.78700065612793 C-19.4950008392334,-19.78700065612793 -16.777000427246094,-9.812000274658203 -16.777000427246094,-9.812000274658203 C-12.572999954223633,-10.800000190734863 -7.790999889373779,-11.788999557495117 -3.3359999656677246,-11.788999557495117 C2.2660000324249268,-11.788999557495117 4.822999954223633,-10.635000228881836 4.822999954223633,-6.678999900817871 C4.822999954223633,-6.678999900817871 4.822999954223633,-3.875 4.822999954223633,-3.875 C4.822999954223633,-3.875 -3.006999969482422,-3.875 -3.006999969482422,-3.875 C-11.90999984741211,-3.875 -22.301000595092773,-1.5670000314712524 -22.301000595092773,9.8100004196167 C-22.301000595092773,18.79599952697754 -16.691999435424805,23.413000106811523 -6.802000045776367,23.413000106811523 C-1.8519999980926514,23.413000106811523 2.8469998836517334,20.857999801635742 6.144999980926514,18.301000595092773 C7.38100004196167,22.174999237060547 13.152000427246094,23.08300018310547 18.59000015258789,23.08300018310547 C19.66200065612793,23.08300018310547 20.736000061035156,23.08300018310547 21.805999755859375,23.000999450683594 C21.805999755859375,23.000999450683594 22.301000595092773,12.61299991607666 22.301000595092773,12.61299991607666 C19.74799919128418,12.531000137329102 18.261999130249023,12.201000213623047 18.261999130249023,10.715999603271484z M-3.9140000343322754,12.779000282287598 C-6.38700008392334,12.779000282287598 -8.940999984741211,11.62600040435791 -8.940999984741211,8.987000465393066 C-8.940999984741211,5.690000057220459 -5.978000164031982,4.370999813079834 -1.934999942779541,4.289999961853027 C-1.934999942779541,4.289999961853027 4.820000171661377,4.124000072479248 4.820000171661377,4.124000072479248 C4.820000171661377,4.124000072479248 4.820000171661377,11.211999893188477 4.820000171661377,11.211999893188477 C4.820000171661377,11.211999893188477 4.822999954223633,11.213000297546387 4.822999954223633,11.213000297546387 C1.8569999933242798,12.03600025177002 -1.2760000228881836,12.779000282287598 -3.9140000343322754,12.779000282287598z"
                                    ></path>
                                  </g>
                                </g>
                              </g>
                              <g
                                mask="url(#__lottie_element_123_1)"
                                style="display: block;"
                              >
                                <g
                                  transform="matrix(1,0,0,1,180.9560089111328,43.69599914550781)"
                                  opacity="1"
                                >
                                  <g
                                    opacity="1"
                                    transform="matrix(1,0,0,1,224.46299743652344,31.332000732421875)"
                                  >
                                    <path
                                      fill="rgb(255,255,255)"
                                      fill-opacity="1"
                                      d=" M-6.883999824523926,-31.082000732421875 C-6.883999824523926,-31.082000732421875 6.883999824523926,-31.082000732421875 6.883999824523926,-31.082000732421875 C6.883999824523926,-31.082000732421875 6.883999824523926,31.082000732421875 6.883999824523926,31.082000732421875 C6.883999824523926,31.082000732421875 -6.883999824523926,31.082000732421875 -6.883999824523926,31.082000732421875 C-6.883999824523926,31.082000732421875 -6.883999824523926,-31.082000732421875 -6.883999824523926,-31.082000732421875z"
                                    ></path>
                                  </g>
                                </g>
                              </g>
                              <g
                                mask="url(#__lottie_element_117_1)"
                                style="display: block;"
                              >
                                <g
                                  transform="matrix(1,0,0,1,180.95599365234375,43.69599914550781)"
                                  opacity="1"
                                >
                                  <g
                                    opacity="1"
                                    transform="matrix(1,0,0,1,262.1809997558594,39.86399841308594)"
                                  >
                                    <path
                                      fill="rgb(255,255,255)"
                                      fill-opacity="1"
                                      d=" M21.43600082397461,-0.7020000219345093 C21.43600082397461,-14.305000305175781 15.993000030517578,-23.538000106811523 1.8140000104904175,-23.538000106811523 C-11.788000106811523,-23.538000106811523 -21.437000274658203,-17.68400001525879 -21.437000274658203,0.6990000009536743 C-21.437000274658203,18.672000885009766 -11.869999885559082,23.538000106811523 2.9690001010894775,23.538000106811523 C8.40999984741211,23.538000106811523 14.84000015258789,22.79400062561035 19.868999481201172,21.308000564575195 C19.868999481201172,21.308000564575195 17.808000564575195,10.840999603271484 17.808000564575195,10.840999603271484 C13.107999801635742,11.664999961853027 7.997000217437744,12.654000282287598 4.942999839782715,12.654000282287598 C-2.2260000705718994,12.654000282287598 -7.828999996185303,11.335000038146973 -7.747000217437744,4.244999885559082 C-7.747000217437744,4.244999885559082 21.43600082397461,4.244999885559082 21.43600082397461,4.244999885559082 C21.43600082397461,4.244999885559082 21.43600082397461,-0.7020000219345093 21.43600082397461,-0.7020000219345093z M7.336999893188477,-4.577000141143799 C7.336999893188477,-4.577000141143799 -7.336999893188477,-4.577000141143799 -7.336999893188477,-4.577000141143799 C-7.0879998207092285,-10.512999534606934 -4.039000034332275,-13.809000015258789 0.6600000262260437,-13.809000015258789 C5.111000061035156,-13.809000015258789 7.501999855041504,-10.017999649047852 7.336999893188477,-4.577000141143799z"
                                    ></path>
                                  </g>
                                </g>
                              </g>
                              <g
                                mask="url(#__lottie_element_111_1)"
                                style="display: block;"
                              >
                                <g
                                  transform="matrix(1,0,0,1,180.95599365234375,43.69600296020508)"
                                  opacity="1"
                                >
                                  <g
                                    opacity="1"
                                    transform="matrix(1,0,0,1,314.78399658203125,39.327999114990234)"
                                  >
                                    <path
                                      fill="rgb(255,255,255)"
                                      fill-opacity="1"
                                      d=" M-21.763999938964844,-21.929000854492188 C-21.763999938964844,-21.929000854492188 -7.998000144958496,-21.929000854492188 -7.998000144958496,-21.929000854492188 C-7.998000144958496,-21.929000854492188 -7.998000144958496,-17.395000457763672 -7.998000144958496,-17.395000457763672 C-5.276000022888184,-19.45599937438965 0.6600000262260437,-23.084999084472656 6.678999900817871,-23.084999084472656 C20.774999618530273,-23.084999084472656 21.763999938964844,-15.335000038146973 21.763999938964844,-5.111999988555908 C21.763999938964844,-5.111999988555908 21.763999938964844,23.084999084472656 21.763999938964844,23.084999084472656 C21.763999938964844,23.084999084472656 8.07800006866455,23.084999084472656 8.07800006866455,23.084999084472656 C8.07800006866455,23.084999084472656 8.07800006866455,-3.9570000171661377 8.07800006866455,-3.9570000171661377 C8.07800006866455,-10.140000343322754 6.679999828338623,-11.211999893188477 2.059000015258789,-11.211999893188477 C-2.061000108718872,-11.211999893188477 -5.769999980926514,-9.892999649047852 -7.998000144958496,-8.821000099182129 C-7.998000144958496,-8.821000099182129 -7.998000144958496,23.08300018310547 -7.998000144958496,23.08300018310547 C-7.998000144958496,23.08300018310547 -21.763999938964844,23.08300018310547 -21.763999938964844,23.08300018310547 C-21.763999938964844,23.08300018310547 -21.763999938964844,-21.929000854492188 -21.763999938964844,-21.929000854492188z"
                                    ></path>
                                  </g>
                                </g>
                              </g>
                              <g
                                mask="url(#__lottie_element_105_1)"
                                style="display: block;"
                              >
                                <g
                                  transform="matrix(1,0,0,1,180.95599365234375,43.69599533081055)"
                                  opacity="1"
                                >
                                  <g
                                    opacity="1"
                                    transform="matrix(1,0,0,1,361.614990234375,35.946998596191406)"
                                  >
                                    <path
                                      fill="rgb(255,255,255)"
                                      fill-opacity="1"
                                      d=" M-11.543999671936035,12.449000358581543 C-11.543999671936035,12.449000358581543 -11.543999671936035,-8.407999992370605 -11.543999671936035,-8.407999992370605 C-11.543999671936035,-8.407999992370605 -18.136999130249023,-8.407999992370605 -18.136999130249023,-8.407999992370605 C-18.136999130249023,-8.407999992370605 -18.136999130249023,-18.54800033569336 -18.136999130249023,-18.54800033569336 C-18.136999130249023,-18.54800033569336 -11.543999671936035,-18.54800033569336 -11.543999671936035,-18.54800033569336 C-11.543999671936035,-18.54800033569336 -11.543999671936035,-27.783000946044922 -11.543999671936035,-27.783000946044922 C-11.543999671936035,-27.783000946044922 2.1410000324249268,-27.783000946044922 2.1410000324249268,-27.783000946044922 C2.1410000324249268,-27.783000946044922 2.1410000324249268,-18.54800033569336 2.1410000324249268,-18.54800033569336 C2.1410000324249268,-18.54800033569336 16.076000213623047,-18.54800033569336 16.076000213623047,-18.54800033569336 C16.076000213623047,-18.54800033569336 16.076000213623047,-8.407999992370605 16.076000213623047,-8.407999992370605 C16.076000213623047,-8.407999992370605 2.1410000324249268,-8.407999992370605 2.1410000324249268,-8.407999992370605 C2.1410000324249268,-8.407999992370605 2.1410000324249268,12.366999626159668 2.1410000324249268,12.366999626159668 C2.1410000324249268,15.663999557495117 3.378999948501587,15.911999702453613 7.090000152587891,15.911999702453613 C10.138999938964844,15.911999702453613 16.81800079345703,15.005000114440918 16.81800079345703,15.005000114440918 C16.81800079345703,15.005000114440918 18.136999130249023,25.804000854492188 18.136999130249023,25.804000854492188 C14.920000076293945,26.711000442504883 10.552000045776367,27.371000289916992 7.254000186920166,27.371000289916992 C-1.402999997138977,27.371000289916992 -11.543999671936035,27.783000946044922 -11.543999671936035,12.449000358581543z"
                                    ></path>
                                  </g>
                                </g>
                              </g>
                              <g
                                mask="url(#__lottie_element_99_1)"
                                style="display: block;"
                              >
                                <g
                                  transform="matrix(0.9999958276748657,0.0028972425498068333,-0.0028972425498068333,0.9999958276748657,40.59064865112305,13.032646179199219)"
                                  opacity="1"
                                >
                                  <path
                                    fill="rgb(255,255,255)"
                                    fill-opacity="1"
                                    d=" M62.3,29.19 C62.3,29.19 62.3,0.25 62.3,0.25 C28.02,0.25 0.25,28.02 0.25,62.31 C0.25,96.59 28.02,124.36 62.3,124.36 C62.3,124.36 62.3,95.42 62.3,95.42 C44,95.42 29.19,80.61 29.19,62.31 C29.19,44.01 44,29.19 62.3,29.19z M64.72,128.35 C27.9,128.35 -1.94,98.51 -1.94,61.69 C-1.94,24.87 27.9,-4.97 64.72,-4.97 C63.72,28.96 63.72,91.46 64.72,128.35z"
                                  ></path>
                                  <g
                                    opacity="1"
                                    transform="matrix(1,0,0,1,31.277000427246094,62.30699920654297)"
                                  >
                                    <path
                                      fill="rgb(255,255,255)"
                                      fill-opacity="1"
                                      d=" M31.027000427246094,-33.11199951171875 C31.027000427246094,-33.11199951171875 31.027000427246094,-62.055999755859375 31.027000427246094,-62.055999755859375 C-3.26200008392334,-62.055999755859375 -31.027000427246094,-34.28799819946289 -31.027000427246094,-0.0010000000474974513 C-31.027000427246094,34.2869987487793 -3.259999990463257,62.055999755859375 31.027000427246094,62.055999755859375 C31.027000427246094,62.055999755859375 31.027000427246094,33.111000061035156 31.027000427246094,33.111000061035156 C12.72599983215332,33.111000061035156 -2.0829999446868896,18.302000045776367 -2.0829999446868896,-0.0010000000474974513 C-2.0829999446868896,-18.301000595092773 12.72599983215332,-33.11199951171875 31.027000427246094,-33.11199951171875z"
                                    ></path>
                                  </g>
                                  <g
                                    opacity="1"
                                    transform="matrix(-1.0099999904632568,0,0,-1.0099999904632568,128.6300048828125,124.6199951171875)"
                                  ></g>
                                </g>
                              </g>
                              <g
                                mask="url(#__lottie_element_92_2)"
                                style="display: block;"
                              >
                                <g
                                  transform="matrix(1,0,0,1,102.46500396728516,42.15900421142578)"
                                  opacity="1"
                                >
                                  <path
                                    fill="rgb(255,255,255)"
                                    fill-opacity="1"
                                    d=" M33.36,33.36 C33.36,51.66 18.55,66.47 0.25,66.47 C0.25,66.47 0.25,0.25 0.25,0.25 C18.55,0.25 33.36,15.06 33.36,33.36"
                                  ></path>
                                  <g
                                    opacity="1"
                                    transform="matrix(1,0,0,1,16.805999755859375,33.36199951171875)"
                                  >
                                    <path
                                      fill="rgb(255,255,255)"
                                      fill-opacity="1"
                                      d=" M16.555999755859375,-0.0010000000474974513 C16.555999755859375,18.302000045776367 1.746999979019165,33.11199951171875 -16.555999755859375,33.11199951171875 C-16.555999755859375,33.11199951171875 -16.555999755859375,-33.11199951171875 -16.555999755859375,-33.11199951171875 C1.7450000047683716,-33.11199951171875 16.555999755859375,-18.304000854492188 16.555999755859375,-0.0020000000949949026"
                                    ></path>
                                  </g>
                                </g>
                              </g>
                              <g
                                transform="matrix(1,0,0,1,102.46500396728516,42.15900421142578)"
                                opacity="1"
                                style="display: block;"
                              ></g>
                              <g
                                transform="matrix(0,1,-1,0,136.5,122.75)"
                                opacity="1"
                                style="display: block;"
                              >
                                <path
                                  fill="rgb(255,75,138)"
                                  fill-opacity="1"
                                  d=" M0,-14.5 C8.00255012512207,-14.5 14.5,-8.00255012512207 14.5,0 C14.5,8.00255012512207 8.00255012512207,14.5 0,14.5 C-8.00255012512207,14.5 -14.5,8.00255012512207 -14.5,0 C-14.5,-8.00255012512207 -8.00255012512207,-14.5 0,-14.5z"
                                ></path>
                              </g>
                              <g
                                transform="matrix(0,1,-1,0,136.875,28.375)"
                                opacity="1"
                                style="display: block;"
                              >
                                <path
                                  fill="rgb(0,216,213)"
                                  fill-opacity="1"
                                  d=" M0,-14.5 C8.00255012512207,-14.5 14.5,-8.00255012512207 14.5,0 C14.5,8.00255012512207 8.00255012512207,14.5 0,14.5 C-8.00255012512207,14.5 -14.5,8.00255012512207 -14.5,0 C-14.5,-8.00255012512207 -8.00255012512207,-14.5 0,-14.5z"
                                ></path>
                              </g>
                            </g>
                            <g
                              clip-path="url(#__lottie_element_4)"
                              style="display: none;"
                              transform="matrix(1,0,0,1,0,5)"
                              opacity="1"
                            >
                              <g
                                mask="url(#__lottie_element_72_1)"
                                style="display: block;"
                              >
                                <g
                                  transform="matrix(1,0,0,1,180.9560089111328,43.69599533081055)"
                                  opacity="1"
                                >
                                  <g
                                    opacity="1"
                                    transform="matrix(1,0,0,1,25.393999099731445,33.268001556396484)"
                                  >
                                    <path
                                      fill="rgb(255,255,255)"
                                      fill-opacity="1"
                                      d=" M-25.143999099731445,0.3709999918937683 C-25.143999099731445,-19.909000396728516 -14.345000267028809,-29.965999603271484 6.8420000076293945,-29.965999603271484 C15.498000144958496,-29.965999603271484 20.608999252319336,-28.399999618530273 24.979999542236328,-26.422000885009766 C24.979999542236328,-26.422000885009766 21.270999908447266,-16.2810001373291 21.270999908447266,-16.2810001373291 C15.746000289916992,-17.764999389648438 13.439000129699707,-18.343000411987305 7.006999969482422,-18.427000045776367 C-3.5450000762939453,-18.59000015258789 -10.880999565124512,-12.656000137329102 -10.880999565124512,-0.45500001311302185 C-10.880999565124512,11.746999740600586 -3.13100004196167,18.260000228881836 8.656999588012695,18.260000228881836 C14.343999862670898,18.260000228881836 17.72599983215332,17.764999389648438 22.173999786376953,16.61199951171875 C22.173999786376953,16.61199951171875 25.143999099731445,27.163999557495117 25.143999099731445,27.163999557495117 C19.538000106811523,29.225000381469727 14.675000190734863,29.965999603271484 7.172999858856201,29.965999603271484 C-14.178000450134277,29.965999603271484 -25.143999099731445,19.496000289916992 -25.143999099731445,0.3709999918937683z"
                                    ></path>
                                  </g>
                                </g>
                              </g>
                              <g
                                mask="url(#__lottie_element_66_1)"
                                style="display: block;"
                              >
                                <g
                                  transform="matrix(1,0,0,1,180.95599365234375,43.69599914550781)"
                                  opacity="1"
                                >
                                  <g
                                    opacity="1"
                                    transform="matrix(1,0,0,1,80.427001953125,39.821998596191406)"
                                  >
                                    <path
                                      fill="rgb(255,255,255)"
                                      fill-opacity="1"
                                      d=" M0.20499999821186066,-23.57900047302246 C-14.057000160217285,-23.57900047302246 -23.37299919128418,-14.428999900817871 -23.374000549316406,0.49300000071525574 C-23.37299919128418,14.592000007629395 -15.375,23.57900047302246 -0.5389999747276306,23.57900047302246 C13.312000274658203,23.57900047302246 23.374000549316406,15.416999816894531 23.374000549316406,0.08500000089406967 C23.374000549316406,-14.590999603271484 16.197999954223633,-23.57900047302246 0.20499999821186066,-23.57900047302246z M9.355999946594238,0.0820000022649765 C9.355999946594238,7.749000072479248 7.545000076293945,12.61299991607666 0.12300000339746475,12.61299991607666 C-7.2129998207092285,12.61299991607666 -9.520999908447266,7.914999961853027 -9.520999908447266,0.16699999570846558 C-9.520999908447266,-7.171999931335449 -7.461999893188477,-12.694999694824219 -0.0430000014603138,-12.694999694824219 C7.545000076293945,-12.694999694824219 9.357000350952148,-7.172999858856201 9.357000350952148,0.0820000022649765 C9.357000350952148,0.0820000022649765 9.355999946594238,0.0820000022649765 9.355999946594238,0.0820000022649765z"
                                    ></path>
                                  </g>
                                </g>
                              </g>
                              <g
                                mask="url(#__lottie_element_60_1)"
                                style="display: block;"
                              >
                                <g
                                  transform="matrix(1,0,0,1,180.9560089111328,43.69599914550781)"
                                  opacity="1"
                                >
                                  <g
                                    opacity="1"
                                    transform="matrix(1,0,0,1,133.2779998779297,39.904998779296875)"
                                  >
                                    <path
                                      fill="rgb(255,255,255)"
                                      fill-opacity="1"
                                      d=" M-25.020999908447266,-22.506000518798828 C-25.020999908447266,-22.506000518798828 -10.263999938964844,-22.506000518798828 -10.263999938964844,-22.506000518798828 C-10.263999938964844,-22.506000518798828 -2.680000066757202,1.8960000276565552 -2.680000066757202,1.8960000276565552 C-2.680000066757202,1.8960000276565552 -0.3720000088214874,10.881999969482422 -0.3720000088214874,10.881999969482422 C-0.3720000088214874,10.881999969482422 2.186000108718872,1.8960000276565552 2.186000108718872,1.8960000276565552 C2.186000108718872,1.8960000276565552 10.590999603271484,-22.506000518798828 10.590999603271484,-22.506000518798828 C10.590999603271484,-22.506000518798828 25.020999908447266,-22.506000518798828 25.020999908447266,-22.506000518798828 C25.020999908447266,-22.506000518798828 7.541999816894531,22.506000518798828 7.541999816894531,22.506000518798828 C7.541999816894531,22.506000518798828 -8.781999588012695,22.506000518798828 -8.781999588012695,22.506000518798828 C-8.781999588012695,22.506000518798828 -25.020999908447266,-22.506000518798828 -25.020999908447266,-22.506000518798828z"
                                    ></path>
                                  </g>
                                </g>
                              </g>
                              <g
                                mask="url(#__lottie_element_54_1)"
                                style="display: block;"
                              >
                                <g
                                  transform="matrix(1,0,0,1,180.95599365234375,43.69599533081055)"
                                  opacity="1"
                                >
                                  <g
                                    opacity="1"
                                    transform="matrix(1,0,0,1,185.05099487304688,39.7400016784668)"
                                  >
                                    <path
                                      fill="rgb(255,255,255)"
                                      fill-opacity="1"
                                      d=" M18.261999130249023,10.715999603271484 C18.261999130249023,10.715999603271484 18.261999130249023,-9.315999984741211 18.261999130249023,-9.315999984741211 C18.261999130249023,-19.45599937438965 12.656999588012695,-23.413000106811523 -1.2769999504089355,-23.413000106811523 C-8.447999954223633,-23.413000106811523 -14.383000373840332,-21.763999938964844 -19.4950008392334,-19.78700065612793 C-19.4950008392334,-19.78700065612793 -16.777000427246094,-9.812000274658203 -16.777000427246094,-9.812000274658203 C-12.572999954223633,-10.800000190734863 -7.790999889373779,-11.788999557495117 -3.3359999656677246,-11.788999557495117 C2.2660000324249268,-11.788999557495117 4.822999954223633,-10.635000228881836 4.822999954223633,-6.678999900817871 C4.822999954223633,-6.678999900817871 4.822999954223633,-3.875 4.822999954223633,-3.875 C4.822999954223633,-3.875 -3.006999969482422,-3.875 -3.006999969482422,-3.875 C-11.90999984741211,-3.875 -22.301000595092773,-1.5670000314712524 -22.301000595092773,9.8100004196167 C-22.301000595092773,18.79599952697754 -16.691999435424805,23.413000106811523 -6.802000045776367,23.413000106811523 C-1.8519999980926514,23.413000106811523 2.8469998836517334,20.857999801635742 6.144999980926514,18.301000595092773 C7.38100004196167,22.174999237060547 13.152000427246094,23.08300018310547 18.59000015258789,23.08300018310547 C19.66200065612793,23.08300018310547 20.736000061035156,23.08300018310547 21.805999755859375,23.000999450683594 C21.805999755859375,23.000999450683594 22.301000595092773,12.61299991607666 22.301000595092773,12.61299991607666 C19.74799919128418,12.531000137329102 18.261999130249023,12.201000213623047 18.261999130249023,10.715999603271484z M-3.9140000343322754,12.779000282287598 C-6.38700008392334,12.779000282287598 -8.940999984741211,11.62600040435791 -8.940999984741211,8.987000465393066 C-8.940999984741211,5.690000057220459 -5.978000164031982,4.370999813079834 -1.934999942779541,4.289999961853027 C-1.934999942779541,4.289999961853027 4.820000171661377,4.124000072479248 4.820000171661377,4.124000072479248 C4.820000171661377,4.124000072479248 4.820000171661377,11.211999893188477 4.820000171661377,11.211999893188477 C4.820000171661377,11.211999893188477 4.822999954223633,11.213000297546387 4.822999954223633,11.213000297546387 C1.8569999933242798,12.03600025177002 -1.2760000228881836,12.779000282287598 -3.9140000343322754,12.779000282287598z"
                                    ></path>
                                  </g>
                                </g>
                              </g>
                              <g
                                mask="url(#__lottie_element_48_1)"
                                style="display: block;"
                              >
                                <g
                                  transform="matrix(1,0,0,1,180.9560089111328,43.69599914550781)"
                                  opacity="1"
                                >
                                  <g
                                    opacity="1"
                                    transform="matrix(1,0,0,1,224.46299743652344,31.332000732421875)"
                                  >
                                    <path
                                      fill="rgb(255,255,255)"
                                      fill-opacity="1"
                                      d=" M-6.883999824523926,-31.082000732421875 C-6.883999824523926,-31.082000732421875 6.883999824523926,-31.082000732421875 6.883999824523926,-31.082000732421875 C6.883999824523926,-31.082000732421875 6.883999824523926,31.082000732421875 6.883999824523926,31.082000732421875 C6.883999824523926,31.082000732421875 -6.883999824523926,31.082000732421875 -6.883999824523926,31.082000732421875 C-6.883999824523926,31.082000732421875 -6.883999824523926,-31.082000732421875 -6.883999824523926,-31.082000732421875z"
                                    ></path>
                                  </g>
                                </g>
                              </g>
                              <g
                                mask="url(#__lottie_element_42_1)"
                                style="display: block;"
                              >
                                <g
                                  transform="matrix(1,0,0,1,180.95599365234375,43.69599914550781)"
                                  opacity="1"
                                >
                                  <g
                                    opacity="1"
                                    transform="matrix(1,0,0,1,262.1809997558594,39.86399841308594)"
                                  >
                                    <path
                                      fill="rgb(255,255,255)"
                                      fill-opacity="1"
                                      d=" M21.43600082397461,-0.7020000219345093 C21.43600082397461,-14.305000305175781 15.993000030517578,-23.538000106811523 1.8140000104904175,-23.538000106811523 C-11.788000106811523,-23.538000106811523 -21.437000274658203,-17.68400001525879 -21.437000274658203,0.6990000009536743 C-21.437000274658203,18.672000885009766 -11.869999885559082,23.538000106811523 2.9690001010894775,23.538000106811523 C8.40999984741211,23.538000106811523 14.84000015258789,22.79400062561035 19.868999481201172,21.308000564575195 C19.868999481201172,21.308000564575195 17.808000564575195,10.840999603271484 17.808000564575195,10.840999603271484 C13.107999801635742,11.664999961853027 7.997000217437744,12.654000282287598 4.942999839782715,12.654000282287598 C-2.2260000705718994,12.654000282287598 -7.828999996185303,11.335000038146973 -7.747000217437744,4.244999885559082 C-7.747000217437744,4.244999885559082 21.43600082397461,4.244999885559082 21.43600082397461,4.244999885559082 C21.43600082397461,4.244999885559082 21.43600082397461,-0.7020000219345093 21.43600082397461,-0.7020000219345093z M7.336999893188477,-4.577000141143799 C7.336999893188477,-4.577000141143799 -7.336999893188477,-4.577000141143799 -7.336999893188477,-4.577000141143799 C-7.0879998207092285,-10.512999534606934 -4.039000034332275,-13.809000015258789 0.6600000262260437,-13.809000015258789 C5.111000061035156,-13.809000015258789 7.501999855041504,-10.017999649047852 7.336999893188477,-4.577000141143799z"
                                    ></path>
                                  </g>
                                </g>
                              </g>
                              <g
                                mask="url(#__lottie_element_36_1)"
                                style="display: block;"
                              >
                                <g
                                  transform="matrix(1,0,0,1,180.95599365234375,43.69600296020508)"
                                  opacity="1"
                                >
                                  <g
                                    opacity="1"
                                    transform="matrix(1,0,0,1,314.78399658203125,39.327999114990234)"
                                  >
                                    <path
                                      fill="rgb(255,255,255)"
                                      fill-opacity="1"
                                      d=" M-21.763999938964844,-21.929000854492188 C-21.763999938964844,-21.929000854492188 -7.998000144958496,-21.929000854492188 -7.998000144958496,-21.929000854492188 C-7.998000144958496,-21.929000854492188 -7.998000144958496,-17.395000457763672 -7.998000144958496,-17.395000457763672 C-5.276000022888184,-19.45599937438965 0.6600000262260437,-23.084999084472656 6.678999900817871,-23.084999084472656 C20.774999618530273,-23.084999084472656 21.763999938964844,-15.335000038146973 21.763999938964844,-5.111999988555908 C21.763999938964844,-5.111999988555908 21.763999938964844,23.084999084472656 21.763999938964844,23.084999084472656 C21.763999938964844,23.084999084472656 8.07800006866455,23.084999084472656 8.07800006866455,23.084999084472656 C8.07800006866455,23.084999084472656 8.07800006866455,-3.9570000171661377 8.07800006866455,-3.9570000171661377 C8.07800006866455,-10.140000343322754 6.679999828338623,-11.211999893188477 2.059000015258789,-11.211999893188477 C-2.061000108718872,-11.211999893188477 -5.769999980926514,-9.892999649047852 -7.998000144958496,-8.821000099182129 C-7.998000144958496,-8.821000099182129 -7.998000144958496,23.08300018310547 -7.998000144958496,23.08300018310547 C-7.998000144958496,23.08300018310547 -21.763999938964844,23.08300018310547 -21.763999938964844,23.08300018310547 C-21.763999938964844,23.08300018310547 -21.763999938964844,-21.929000854492188 -21.763999938964844,-21.929000854492188z"
                                    ></path>
                                  </g>
                                </g>
                              </g>
                              <g
                                mask="url(#__lottie_element_30_1)"
                                style="display: block;"
                              >
                                <g
                                  transform="matrix(1,0,0,1,180.95599365234375,43.69600296020508)"
                                  opacity="1"
                                >
                                  <g
                                    opacity="1"
                                    transform="matrix(1,0,0,1,361.614990234375,35.946998596191406)"
                                  >
                                    <path
                                      fill="rgb(255,255,255)"
                                      fill-opacity="1"
                                      d=" M-11.543999671936035,12.449000358581543 C-11.543999671936035,12.449000358581543 -11.543999671936035,-8.407999992370605 -11.543999671936035,-8.407999992370605 C-11.543999671936035,-8.407999992370605 -18.136999130249023,-8.407999992370605 -18.136999130249023,-8.407999992370605 C-18.136999130249023,-8.407999992370605 -18.136999130249023,-18.54800033569336 -18.136999130249023,-18.54800033569336 C-18.136999130249023,-18.54800033569336 -11.543999671936035,-18.54800033569336 -11.543999671936035,-18.54800033569336 C-11.543999671936035,-18.54800033569336 -11.543999671936035,-27.783000946044922 -11.543999671936035,-27.783000946044922 C-11.543999671936035,-27.783000946044922 2.1410000324249268,-27.783000946044922 2.1410000324249268,-27.783000946044922 C2.1410000324249268,-27.783000946044922 2.1410000324249268,-18.54800033569336 2.1410000324249268,-18.54800033569336 C2.1410000324249268,-18.54800033569336 16.076000213623047,-18.54800033569336 16.076000213623047,-18.54800033569336 C16.076000213623047,-18.54800033569336 16.076000213623047,-8.407999992370605 16.076000213623047,-8.407999992370605 C16.076000213623047,-8.407999992370605 2.1410000324249268,-8.407999992370605 2.1410000324249268,-8.407999992370605 C2.1410000324249268,-8.407999992370605 2.1410000324249268,12.366999626159668 2.1410000324249268,12.366999626159668 C2.1410000324249268,15.663999557495117 3.378999948501587,15.911999702453613 7.090000152587891,15.911999702453613 C10.138999938964844,15.911999702453613 16.81800079345703,15.005000114440918 16.81800079345703,15.005000114440918 C16.81800079345703,15.005000114440918 18.136999130249023,25.804000854492188 18.136999130249023,25.804000854492188 C14.920000076293945,26.711000442504883 10.552000045776367,27.371000289916992 7.254000186920166,27.371000289916992 C-1.402999997138977,27.371000289916992 -11.543999671936035,27.783000946044922 -11.543999671936035,12.449000358581543z"
                                    ></path>
                                  </g>
                                </g>
                              </g>
                              <g
                                mask="url(#__lottie_element_24_1)"
                                style="display: block;"
                              >
                                <g
                                  transform="matrix(0.9999958276748657,0.0028949694242328405,-0.0028949694242328405,0.9999958276748657,40.59050750732422,13.03278923034668)"
                                  opacity="1"
                                >
                                  <path
                                    fill="rgb(255,255,255)"
                                    fill-opacity="1"
                                    d=" M62.3,29.19 C62.3,29.19 62.3,0.25 62.3,0.25 C28.02,0.25 0.25,28.02 0.25,62.31 C0.25,96.59 28.02,124.36 62.3,124.36 C62.3,124.36 62.3,95.42 62.3,95.42 C44,95.42 29.19,80.61 29.19,62.31 C29.19,44.01 44,29.19 62.3,29.19z M64.72,128.35 C27.9,128.35 -1.94,98.51 -1.94,61.69 C-1.94,24.87 27.9,-4.97 64.72,-4.97 C63.72,28.96 63.72,91.46 64.72,128.35z"
                                  ></path>
                                  <g
                                    opacity="1"
                                    transform="matrix(1,0,0,1,31.277000427246094,62.30699920654297)"
                                  >
                                    <path
                                      fill="rgb(255,255,255)"
                                      fill-opacity="1"
                                      d=" M31.027000427246094,-33.11199951171875 C31.027000427246094,-33.11199951171875 31.027000427246094,-62.055999755859375 31.027000427246094,-62.055999755859375 C-3.26200008392334,-62.055999755859375 -31.027000427246094,-34.28799819946289 -31.027000427246094,-0.0010000000474974513 C-31.027000427246094,34.2869987487793 -3.259999990463257,62.055999755859375 31.027000427246094,62.055999755859375 C31.027000427246094,62.055999755859375 31.027000427246094,33.111000061035156 31.027000427246094,33.111000061035156 C12.72599983215332,33.111000061035156 -2.0829999446868896,18.302000045776367 -2.0829999446868896,-0.0010000000474974513 C-2.0829999446868896,-18.301000595092773 12.72599983215332,-33.11199951171875 31.027000427246094,-33.11199951171875z"
                                    ></path>
                                  </g>
                                  <g
                                    opacity="1"
                                    transform="matrix(-1.0099999904632568,0.000003152936415062868,-0.000003152936415062868,-1.0099999904632568,128.63018798828125,124.61979675292969)"
                                  ></g>
                                </g>
                              </g>
                              <g
                                mask="url(#__lottie_element_17_2)"
                                style="display: block;"
                              >
                                <g
                                  transform="matrix(1,0,0,1,102.46500396728516,42.15900421142578)"
                                  opacity="1"
                                >
                                  <path
                                    fill="rgb(255,255,255)"
                                    fill-opacity="1"
                                    d=" M33.36,33.36 C33.36,51.66 18.55,66.47 0.25,66.47 C0.25,66.47 0.25,0.25 0.25,0.25 C18.55,0.25 33.36,15.06 33.36,33.36"
                                  ></path>
                                  <g
                                    opacity="1"
                                    transform="matrix(1,0,0,1,16.805999755859375,33.36199951171875)"
                                  >
                                    <path
                                      fill="rgb(255,255,255)"
                                      fill-opacity="1"
                                      d=" M16.555999755859375,-0.0010000000474974513 C16.555999755859375,18.302000045776367 1.746999979019165,33.11199951171875 -16.555999755859375,33.11199951171875 C-16.555999755859375,33.11199951171875 -16.555999755859375,-33.11199951171875 -16.555999755859375,-33.11199951171875 C1.7450000047683716,-33.11199951171875 16.555999755859375,-18.304000854492188 16.555999755859375,-0.0020000000949949026"
                                    ></path>
                                  </g>
                                </g>
                              </g>
                              <g
                                style="display: block;"
                                transform="matrix(1,0,0,1,102.46500396728516,42.15900421142578)"
                                opacity="1"
                              ></g>
                              <g
                                style="display: block;"
                                transform="matrix(0.0000022731874196324497,1,-1,0.0000022731874196324497,136.50010681152344,122.74993133544922)"
                                opacity="1"
                              >
                                <path
                                  fill="rgb(255,75,138)"
                                  fill-opacity="1"
                                  d=" M0,-14.5 C8.00255012512207,-14.5 14.5,-8.00255012512207 14.5,0 C14.5,8.00255012512207 8.00255012512207,14.5 0,14.5 C-8.00255012512207,14.5 -14.5,8.00255012512207 -14.5,0 C-14.5,-8.00255012512207 -8.00255012512207,-14.5 0,-14.5z"
                                ></path>
                              </g>
                              <g
                                style="display: block;"
                                transform="matrix(0.0000022731874196324497,1,-1,0.0000022731874196324497,136.87489318847656,28.374919891357422)"
                                opacity="1"
                              >
                                <path
                                  fill="rgb(0,216,213)"
                                  fill-opacity="1"
                                  d=" M0,-14.5 C8.00255012512207,-14.5 14.5,-8.00255012512207 14.5,0 C14.5,8.00255012512207 8.00255012512207,14.5 0,14.5 C-8.00255012512207,14.5 -14.5,8.00255012512207 -14.5,0 C-14.5,-8.00255012512207 -8.00255012512207,-14.5 0,-14.5z"
                                ></path>
                              </g>
                            </g>
                          </g>
                        </svg>